<?xml version="1.0" encoding="UTF-8" standalone="no"?>
<!DOCTYPE svg PUBLIC "-//W3C//DTD SVG 1.1//EN"
 "http://www.w3.org/Graphics/SVG/1.1/DTD/svg11.dtd">
<!-- Generated by graphviz version 2.43.0 (0)
 -->
<!-- Title: %3 Pages: 1 -->
<svg width="1057pt" height="101pt"
 viewBox="0.00 0.00 1057.00 101.00" xmlns="http://www.w3.org/2000/svg" xmlns:xlink="http://www.w3.org/1999/xlink">
<g id="graph0" class="graph" transform="scale(1 1) rotate(0) translate(4 97)">
<title>%3</title>
<polygon fill="white" stroke="transparent" points="-4,4 -4,-97 1053,-97 1053,4 -4,4"/>
<g id="clust1" class="cluster">
<title>cluster_0</title>
<polygon fill="none" stroke="black" points="8,-8 8,-85 141,-85 141,-8 8,-8"/>
<text text-anchor="middle" x="74.5" y="-69.8" font-family="Times,serif" font-size="14.00">Input Layer</text>
</g>
<g id="clust2" class="cluster">
<title>cluster_1</title>
<polygon fill="none" stroke="black" points="306,-8 306,-85 435,-85 435,-8 306,-8"/>
<text text-anchor="middle" x="370.5" y="-69.8" font-family="Times,serif" font-size="14.00">LSTM Layer</text>
</g>
<g id="clust3" class="cluster">
<title>cluster_2</title>
<polygon fill="none" stroke="black" points="609,-8 609,-85 756,-85 756,-8 609,-8"/>
<text text-anchor="middle" x="682.5" y="-69.8" font-family="Times,serif" font-size="14.00">Attention Layer</text>
</g>
<g id="clust4" class="cluster">
<title>cluster_3</title>
<polygon fill="none" stroke="black" points="915,-8 915,-85 1041,-85 1041,-8 915,-8"/>
<text text-anchor="middle" x="978" y="-69.8" font-family="Times,serif" font-size="14.00">Output Layer</text>
</g>
<!-- input -->
<g id="node1" class="node">
<title>input</title>
<path fill="lightgreen" stroke="black" d="M121,-54C121,-54 28,-54 28,-54 22,-54 16,-48 16,-42 16,-42 16,-28 16,-28 16,-22 22,-16 28,-16 28,-16 121,-16 121,-16 127,-16 133,-22 133,-28 133,-28 133,-42 133,-42 133,-48 127,-54 121,-54"/>
<text text-anchor="middle" x="74.5" y="-38.8" font-family="Times,serif" font-size="14.00">Input Features</text>
<text text-anchor="middle" x="74.5" y="-23.8" font-family="Times,serif" font-size="14.00">(batch_size, 1000)</text>
</g>
<!-- lstm -->
<g id="node2" class="node">
<title>lstm</title>
<path fill="lightblue" stroke="black" d="M415,-54C415,-54 326,-54 326,-54 320,-54 314,-48 314,-42 314,-42 314,-28 314,-28 314,-22 320,-16 326,-16 326,-16 415,-16 415,-16 421,-16 427,-22 427,-28 427,-28 427,-42 427,-42 427,-48 421,-54 415,-54"/>
<text text-anchor="middle" x="370.5" y="-38.8" font-family="Times,serif" font-size="14.00">LSTM</text>
<text text-anchor="middle" x="370.5" y="-23.8" font-family="Times,serif" font-size="14.00">(hidden_dim=10)</text>
</g>
<!-- input&#45;&gt;lstm -->
<g id="edge1" class="edge">
<title>input&#45;&gt;lstm</title>
<path fill="none" stroke="black" d="M133.23,-35C182.2,-35 252.44,-35 303.6,-35"/>
<polygon fill="black" stroke="black" points="303.89,-38.5 313.89,-35 303.89,-31.5 303.89,-38.5"/>
<text text-anchor="middle" x="223.5" y="-53.8" font-family="Times,serif" font-size="14.00">reshape</text>
<text text-anchor="middle" x="223.5" y="-38.8" font-family="Times,serif" font-size="14.00">(batch_size, 1, input_dim)</text>
</g>
<!-- attention -->
<g id="node3" class="node">
<title>attention</title>
<path fill="lightyellow" stroke="black" d="M736,-54C736,-54 629,-54 629,-54 623,-54 617,-48 617,-42 617,-42 617,-28 617,-28 617,-22 623,-16 629,-16 629,-16 736,-16 736,-16 742,-16 748,-22 748,-28 748,-28 748,-42 748,-42 748,-48 742,-54 736,-54"/>
<text text-anchor="middle" x="682.5" y="-38.8" font-family="Times,serif" font-size="14.00">Multi&#45;head Attention</text>
<text text-anchor="middle" x="682.5" y="-23.8" font-family="Times,serif" font-size="14.00">(num_heads=1)</text>
</g>
<!-- lstm&#45;&gt;attention -->
<g id="edge2" class="edge">
<title>lstm&#45;&gt;attention</title>
<path fill="none" stroke="black" d="M427.28,-35C477.41,-35 551.44,-35 606.7,-35"/>
<polygon fill="black" stroke="black" points="606.79,-38.5 616.79,-35 606.79,-31.5 606.79,-38.5"/>
<text text-anchor="middle" x="522" y="-53.8" font-family="Times,serif" font-size="14.00">LSTM output</text>
<text text-anchor="middle" x="522" y="-38.8" font-family="Times,serif" font-size="14.00">(batch_size, 1, hidden_dim)</text>
</g>
<!-- fc -->
<g id="node4" class="node">
<title>fc</title>
<path fill="lightpink" stroke="black" d="M1021,-54C1021,-54 935,-54 935,-54 929,-54 923,-48 923,-42 923,-42 923,-28 923,-28 923,-22 929,-16 935,-16 935,-16 1021,-16 1021,-16 1027,-16 1033,-22 1033,-28 1033,-28 1033,-42 1033,-42 1033,-48 1027,-54 1021,-54"/>
<text text-anchor="middle" x="978" y="-38.8" font-family="Times,serif" font-size="14.00">Fully Connected</text>
<text text-anchor="middle" x="978" y="-23.8" font-family="Times,serif" font-size="14.00">(num_classes=5)</text>
</g>
<!-- attention&#45;&gt;fc -->
<g id="edge3" class="edge">
<title>attention&#45;&gt;fc</title>
<path fill="none" stroke="black" d="M748.27,-35C797.13,-35 863.84,-35 912.6,-35"/>
<polygon fill="black" stroke="black" points="912.72,-38.5 922.72,-35 912.72,-31.5 912.72,-38.5"/>
<text text-anchor="middle" x="835.5" y="-53.8" font-family="Times,serif" font-size="14.00">attention output</text>
<text text-anchor="middle" x="835.5" y="-38.8" font-family="Times,serif" font-size="14.00">(batch_size, hidden_dim)</text>
</g>
</g>
</svg>
